<svg width="97" height="58" viewBox="0 0 97 58" fill="none" xmlns="http://www.w3.org/2000/svg">
<path d="M96.358 23.9135C96.2842 22.3948 95.7128 21.4279 95.04 20.5316C93.6547 18.6646 92.3622 17.1751 90.886 15.3629C89.5586 13.755 87.8339 11.8115 85.1375 11.7595C83.7054 11.7484 82.0832 12.2294 80.589 12.462C79.69 12.6043 78.8728 12.5581 78.1655 12.6877C77.4258 12.8162 76.7663 13.0695 76.1626 13.3498C75.4484 13.6568 74.8553 13.8315 74.354 14.1771C73.3796 14.851 72.4997 15.9135 71.8541 16.9378C71.5217 17.4582 71.3209 18.0853 70.9275 18.7018C70.6816 19.1064 70.1968 19.3549 69.8384 19.6199C68.6814 20.4886 68.0649 21.5129 67.5928 23.1611C67.0538 25.13 67.4351 28.3871 65.7232 28.9967C65.0674 29.2261 63.8535 29.25 63.2625 28.9967C62.4607 28.6611 62.4772 27.6591 62.4772 26.5807C62.4772 24.5374 61.6186 23.7738 61.2431 22.1527C60.9585 20.9346 61.2649 19.7314 60.9421 18.6056C60.6744 17.626 60.0091 17.0881 59.3172 16.4121C58.2281 15.3427 57.2628 14.6518 56.3357 13.6514C55.3894 12.6234 54.7198 11.3777 53.4062 10.808C52.4891 10.3996 51.2625 10.4458 50.063 10.2717C48.9166 10.1086 47.63 10.252 46.6137 10.5913C45.6595 10.8812 44.9877 11.5689 44.2327 12.196C43.5535 12.7758 42.7331 13.2102 41.6903 13.6514C39.81 14.4448 37.711 15.0942 37.0037 16.9383C36.8231 17.43 36.7998 17.986 36.6054 18.4771C36.2146 19.5397 35.6528 19.965 34.9036 20.6606C34.5515 20.9755 34.1867 21.3323 33.8835 21.6769C33.3148 22.3486 32.5911 23.2195 32.5003 24.3038C32.3197 26.0582 32.9872 27.6342 32.4042 29.0849C32.1966 29.6201 31.5317 30.1012 30.8271 30.217C30.2112 30.3189 29.5989 30.2021 29.0578 30.217C28.4403 30.2446 27.8748 30.3348 27.3613 30.4862C25.5501 31.0182 25.1741 32.3362 25.1295 34.5626C25.12 35.3443 25.2718 36.0558 25.1295 36.8029C24.6123 39.4297 22.6328 40.9537 22.3285 43.7239C22.1384 45.2298 22.4559 47.529 21.609 48.3218C21.3308 48.5852 20.0712 49.2086 19.5222 49.1996C18.9508 49.1996 18.5568 48.7413 18.0205 48.5406C17.4194 48.3218 16.6803 48.3494 16.0017 48.2693C14.8415 48.1715 13.8172 47.836 13.5102 47.0989C12.8205 45.4236 13.6918 42.5446 13.6441 40.6962C13.5718 38.5786 12.8969 36.2953 13.4232 34.4331C13.7524 33.2357 14.1469 32.1238 14.4151 30.7485C15.0135 27.863 14.1788 25.1353 13.9404 22.3401C13.8267 20.9452 13.6743 19.4876 13.4789 18.1171C13.2612 16.7923 12.7191 15.3756 12.8969 14.0062C13.0132 12.9962 14.0561 12.2868 14.8223 11.5891C15.5073 10.9588 16.3436 10.2711 16.5237 9.35993C16.8444 7.88695 15.8365 6.65185 15.3496 5.6318C14.8579 4.59583 14.3997 3.5264 13.4794 2.99806C13.2171 2.85044 12.8205 2.73203 12.4477 2.65397C11.6703 2.466 10.6174 2.29555 10.0094 2.3444C9.25696 2.39485 8.27461 2.98266 7.46325 3.03788C6.74269 3.09311 6.11027 2.92691 5.48422 3.03788C4.99889 3.12815 4.44347 3.36763 3.94646 3.56145C3.44891 3.77703 2.89031 3.97191 2.50533 4.22148C2.09859 4.48379 1.83999 5.08912 1.45927 5.54047C1.08438 5.95412 0.745078 6.29343 0.490199 6.71769C-0.0413287 7.62198 -0.137439 8.67494 0.186469 9.7088C0.625072 11.1595 2.34391 11.3214 3.02996 12.6861C3.38095 13.3966 3.24873 14.4432 3.24873 15.4069C3.28749 18.4108 4.48967 20.359 4.78543 23.0761C4.89588 24.016 4.82154 25.0058 4.82154 26.0146C4.82154 27.0278 5.05359 27.9868 5.07907 28.8119C5.19271 30.6603 4.20346 32.188 3.81318 33.6769C3.35811 35.4579 3.57688 37.3259 3.78079 39.1526C3.97779 41.0732 3.87424 43.1786 4.02664 45.0339C4.20399 47.0841 4.81198 48.6006 3.86522 50.2026C3.20306 51.3294 1.79167 52.8762 2.05399 54.5435C2.22125 55.4388 3.23227 56.3234 4.12593 56.8677C5.03128 57.422 6.14903 57.7858 7.36077 57.6652C8.82101 57.5038 9.96796 56.2454 11.7075 56.5592C12.2863 56.6702 12.8545 56.9314 13.4794 57.0312C14.1469 57.1735 14.8415 57.2181 15.5238 57.2707C18.3014 57.4311 20.8178 56.2326 23.5827 56.8236C24.7488 57.0758 26.1862 57.618 27.459 57.2176C29.0738 56.7121 30.1559 54.2748 30.2117 52.2692C30.2786 49.936 30.1554 47.3389 30.6859 45.3748C30.8722 44.7652 31.2763 44.3069 31.5769 43.8094C32.1105 42.8764 32.5911 41.884 32.7042 40.65C32.7658 40.1137 32.675 39.4547 33.0143 38.8064C33.3701 39.1834 33.3796 39.7722 33.4083 40.2528C33.515 42.1208 33.4959 43.9416 33.9871 45.3376C34.2749 46.1707 34.9652 46.5913 35.3443 47.2758C35.9188 48.3208 35.9964 49.5219 36.3097 50.5982C36.6357 51.8083 37.0042 52.684 37.7524 53.4497C38.4671 54.1978 39.442 54.5828 40.4344 55.0692C41.4258 55.5529 42.508 55.7924 43.6252 56.2119C44.8014 56.6463 45.5378 57.1549 46.9981 57.1342C48.3516 57.1162 49.4975 56.9325 50.8122 56.6027C52.0436 56.3 53.2649 56.222 54.3705 55.8567C54.8632 55.7043 55.3491 55.4361 55.8488 55.1998C56.3888 54.9593 56.9702 54.8642 57.4741 54.6359C59.4956 53.7215 59.6772 51.0262 60.1966 48.453C60.4621 47.1202 59.9942 45.9132 59.6156 44.7376C59.2832 43.5837 58.7666 42.08 57.6971 42.0109C55.8302 41.8851 55.0252 44.2698 54.1496 45.6875C53.19 47.2189 51.6666 48.0059 49.2277 48.0059C46.9142 48.0059 44.7599 47.6347 43.8939 46.1251C43.4452 45.3753 43.3422 44.3558 42.9535 43.4149C42.4761 42.1713 41.5713 41.3966 41.5155 39.8976C41.506 39.4059 41.6547 39.2742 41.6547 38.7639C41.6547 38.0624 41.2166 37.8686 41.2931 37.0588C42.4437 36.0388 44.152 36.4615 45.454 36.8018C46.7719 37.1353 48.1891 37.7497 49.6621 37.7072C50.7347 37.6902 52.0059 37.3785 53.0382 37.1868C54.1395 36.9819 55.2179 36.7068 56.4233 36.6197C58.9678 36.4418 61.6552 37.172 63.8679 36.8395C64.393 36.7636 65.2447 36.1323 65.7688 36.3579C66.1262 36.5114 66.1331 37.1714 66.1628 37.5314C66.2297 39.2163 66.1464 40.7105 66.5117 41.9679C66.9476 43.5184 68.1461 44.7652 68.5242 46.355C68.6819 46.9964 68.6208 47.3713 68.795 48.1062C68.8826 48.5395 69.2639 48.7535 69.6191 49.1066C70.4559 49.9557 71.1218 51.0708 71.7739 51.9119C72.7493 53.1863 73.5755 54.3826 74.8749 55.4351C76.0049 56.3069 77.446 57.3626 79.2291 57.6652C80.2072 57.8235 81.3031 57.7513 82.3715 57.7996C83.3825 57.8235 84.5072 58.0221 85.4879 57.8325C86.4936 57.6318 87.0815 56.9319 87.8886 56.3473C88.573 55.8514 89.4226 55.4717 90.1267 55.0681C90.9545 54.6109 91.6093 54.2015 92.2847 53.7205C92.9925 53.1735 93.4667 52.6091 93.9908 51.8768C94.8563 50.6412 96.0102 48.9038 96.059 46.878C96.0617 45.7571 95.7351 44.9043 95.2992 44.1195C94.9535 43.4446 94.372 42.5494 93.5511 42.3247C92.0043 41.8845 91.1415 43.1589 90.3205 43.6358C89.9101 43.8535 89.5001 43.9416 89.1709 44.162C87.5944 45.1305 86.7931 47.7478 85.1784 48.3208C84.5258 48.5512 83.6671 48.5841 82.6821 48.5841C82.3869 48.5841 82.1103 48.4089 81.8065 48.2677C80.9787 47.9252 80.281 47.6076 79.6549 47.1308C78.7894 46.4878 77.9531 45.8012 77.3785 44.9925C76.4573 43.6894 76.3442 41.6095 75.4038 40.3877C75.0225 39.897 74.6344 39.6384 74.389 39.152C73.951 38.2743 74.3115 36.9633 75.0512 36.6537C76.1918 36.2103 77.0647 37.1189 78.2021 37.1008C79.1117 37.087 79.9263 36.7179 80.7467 36.5326C82.585 36.119 84.7854 36.2103 86.2281 36.8395C86.9747 37.172 87.7277 37.5144 88.6022 37.5787C89.8756 37.6785 91.1967 37.4709 92.3622 37.3206C93.3966 37.1868 95.1818 37.0169 95.6029 36.5321C95.8063 36.2937 95.7797 35.8928 95.8636 35.4717C95.9475 35.152 96.059 34.8228 96.1296 34.5605C96.7753 32.5459 96.3585 30.1585 96.1296 28.2459C95.9645 26.766 96.4265 25.2314 96.358 23.9135ZM54.2329 28.2077C54.0104 28.8141 52.0882 29.3695 50.9933 29.2564C50.3859 29.1969 49.9345 28.8565 49.2272 28.6856C47.699 28.3202 44.9463 28.462 42.9147 28.5539C42.055 28.5916 41.3292 28.5916 41.1635 28.1158C40.8529 27.246 42.114 26.2865 42.5722 25.7874C43.1664 25.1534 43.7702 24.1647 44.0134 23.468C44.2066 22.912 44.1743 22.321 44.598 21.85C44.8927 21.481 45.7311 21.3334 46.3386 21.0249C47.3693 20.4896 47.7925 19.2853 48.8874 19.1372C49.7242 19.0193 50.072 19.7181 50.7645 20.2305C51.2625 20.5958 52.1137 20.8587 52.3436 21.2288C52.5762 21.5782 52.4891 22.2817 52.5762 23.0782C52.7185 24.7264 53.5745 25.5447 54.0104 26.6264C54.2074 27.1133 54.3699 27.8009 54.2329 28.2077ZM85.5272 28.95C84.6362 28.8937 83.7314 29.0073 82.7623 29.0371C80.9208 29.0944 79.3544 28.7689 77.7417 28.4217C76.9352 28.2576 75.8079 28.282 75.6815 27.6767C75.5519 27.1818 76.1015 26.2223 76.3665 25.7868C77.0122 24.7201 77.8262 23.7871 78.5627 22.8117C79.1059 22.0991 79.5678 21.2144 80.675 21.113C81.1311 21.044 81.5793 21.2277 82.1103 21.2803C82.723 21.3318 83.4765 21.1475 83.9061 21.2803C84.496 21.4454 84.9394 22.166 85.4497 22.5467C85.9547 22.9476 86.6848 23.2827 86.9747 23.819C87.4144 24.6213 87.1553 25.7741 87.3746 26.8011C87.5169 27.5174 87.9119 28.0054 87.8886 28.7217C87.4431 29.2261 86.2897 28.9866 85.5272 28.95Z" fill="black"/>
<path d="M94.6234 5.64939C94.5947 5.57505 94.5809 5.45558 94.5809 5.29203L94.5586 4.72227C94.5586 4.48279 94.4943 4.31075 94.4163 4.19393C94.352 4.09623 94.2028 3.99427 94.0446 3.921C94.2283 3.83763 94.3712 3.70435 94.4874 3.53709C94.5947 3.38469 94.6351 3.17601 94.6351 2.91954C94.6351 2.43367 94.4397 2.10339 94.0568 1.91701C93.8476 1.82887 93.6017 1.7832 93.2661 1.7832H91.3477V6.01631H91.9137V4.19393H93.1886C93.4212 4.19393 93.589 4.2157 93.6894 4.28101C93.864 4.36597 93.9702 4.54598 93.9963 4.83325L94.0287 5.5347C94.0287 5.70461 94.0435 5.80869 94.0563 5.8602C94.0563 5.92445 94.0796 5.97224 94.0929 6.01578H94.7997V5.90586C94.7195 5.87241 94.6489 5.79117 94.6234 5.64939ZM93.8248 3.54293C93.6771 3.65975 93.4663 3.72293 93.2152 3.72293H91.9137V2.27172H93.2661C93.4663 2.27172 93.6219 2.30623 93.7409 2.35296C93.9416 2.46076 94.0568 2.67156 94.0568 2.98432C94.0573 3.25619 93.9899 3.45106 93.8248 3.54293Z" fill="black"/>
<path d="M92.3904 0.0324038C90.5547 0.251174 88.9941 1.7916 89.0079 3.93098C89.0408 7.30387 92.7291 8.6765 95.1064 7.15042C96.5247 6.24188 97.3844 3.98036 96.4047 2.06081C95.8955 1.04077 94.4862 -0.218758 92.3904 0.0324038ZM96.144 4.44552C95.8955 6.44791 93.352 7.99151 91.2068 6.67464C90.2541 6.09586 89.3536 4.6234 89.8023 3.01767C90.097 2.00665 91.0889 0.931912 92.4636 0.746063C94.6221 0.467821 96.4243 2.06081 96.144 4.44552Z" fill="black"/>
</svg>
